<svg id="No_Cable" data-name="No Cable" xmlns="http://www.w3.org/2000/svg" width="78.951" height="77.378" viewBox="0 0 78.951 77.378">
  <g id="ethernet_1_" data-name="ethernet (1)" transform="translate(0)">
    <rect id="Rectangle_1529" data-name="Rectangle 1529" width="5.108" height="17.508" transform="translate(4.902 76.087) rotate(-135)" fill="#e7eced"/>
    <path id="Path_3089" data-name="Path 3089" d="M78.641,364.127l-4.5-4.5a1.929,1.929,0,0,1,0-2.728l5.338-5.338,7.225,7.225-5.338,5.338A1.929,1.929,0,0,1,78.641,364.127Z" transform="translate(-62.46 -298.434)" fill="#8496a0"/>
    <path id="Path_3090" data-name="Path 3090" d="M266.558,29.135,246.695,9.271a2.558,2.558,0,0,0-3.616,0L225.261,27.089l9.03,9.031,5.419,5.419,9.03,9.031,17.818-17.818A2.557,2.557,0,0,0,266.558,29.135Z" transform="translate(-191.218 -7.234)" fill="#e7eced"/>
    <g id="Group_11055" data-name="Group 11055" transform="translate(12.126 4.745)">
      <path id="Path_3091" data-name="Path 3091" d="M118.173,125.332l-6.322,6.322a3.832,3.832,0,0,1-5.419-5.419l6.322-6.322-10.837-10.837L86.565,124.428l-6.322,18.965,14.449,14.449,18.964-6.322,15.353-15.352Z" transform="translate(-80.243 -97.337)" fill="#afb6bb"/>
      <rect id="Rectangle_1530" data-name="Rectangle 1530" width="5.108" height="10.217" transform="translate(42.445 10.836) rotate(-135)" fill="#afb6bb"/>
    </g>
    <rect id="Rectangle_1531" data-name="Rectangle 1531" width="5.108" height="10.217" transform="translate(58.187 19.193) rotate(-135)" fill="#6c797a"/>
    <rect id="Rectangle_1532" data-name="Rectangle 1532" width="5.108" height="10.217" transform="translate(61.799 22.808) rotate(-135)" fill="#afb6bb"/>
    <g id="Group_11056" data-name="Group 11056" transform="translate(37.193 15.589)">
      <rect id="Rectangle_1533" data-name="Rectangle 1533" width="5.108" height="10.217" transform="translate(28.217 10.836) rotate(-135)" fill="#6c797a"/>
      <path id="Path_3092" data-name="Path 3092" d="M247.231,162.085h0a3.833,3.833,0,0,1,0-5.419l11.74-11.74,5.419,5.419-11.74,11.74A3.831,3.831,0,0,1,247.231,162.085Z" transform="translate(-246.109 -138.612)" fill="#6c797a"/>
    </g>
    <g id="Group_11057" data-name="Group 11057">
      <path id="Path_3093" data-name="Path 3093" d="M333.564,36.278a1.286,1.286,0,0,1-.912-.378l-3.612-3.612a1.289,1.289,0,0,1,0-1.823l7.225-7.225a1.288,1.288,0,0,1,1.823,0l3.612,3.612a1.289,1.289,0,0,1,0,1.824L334.476,35.9A1.286,1.286,0,0,1,333.564,36.278Zm-1.789-4.9,1.789,1.789,5.4-5.4-1.789-1.789Z" transform="translate(-278.993 -19.406)" fill="#28287d"/>
      <path id="Path_3094" data-name="Path 3094" d="M357.465,60.182h0a1.286,1.286,0,0,1-.912-.378l-3.612-3.612a1.288,1.288,0,0,1,0-1.824l7.225-7.225a1.288,1.288,0,0,1,.912-.378h0a1.286,1.286,0,0,1,.912.378l3.612,3.612a1.288,1.288,0,0,1,0,1.824L358.376,59.8A1.294,1.294,0,0,1,357.465,60.182Zm-1.789-4.9,1.789,1.789,5.4-5.4-1.789-1.789Z" transform="translate(-299.281 -39.698)" fill="#28287d"/>
      <path id="Path_3095" data-name="Path 3095" d="M381.369,84.083a1.286,1.286,0,0,1-.912-.378l-3.612-3.612a1.289,1.289,0,0,1,0-1.824l7.225-7.225a1.288,1.288,0,0,1,1.823,0l3.612,3.612a1.289,1.289,0,0,1,0,1.823L382.281,83.7A1.286,1.286,0,0,1,381.369,84.083Zm-1.789-4.9,1.789,1.789,5.4-5.4-1.789-1.789Z" transform="translate(-319.573 -59.987)" fill="#28287d"/>
      <path id="Path_3096" data-name="Path 3096" d="M405.268,107.987h0a1.286,1.286,0,0,1-.912-.378L400.744,104a1.288,1.288,0,0,1,0-1.824l7.225-7.225a1.289,1.289,0,0,1,.912-.378h0a1.287,1.287,0,0,1,.912.378l3.612,3.612a1.288,1.288,0,0,1,0,1.824l-7.225,7.225A1.288,1.288,0,0,1,405.268,107.987Zm-1.789-4.9,1.789,1.789,5.4-5.4-1.789-1.789Z" transform="translate(-339.86 -80.279)" fill="#28287d"/>
      <path id="Path_3097" data-name="Path 3097" d="M242.7,157.328a5.107,5.107,0,0,1-3.621-1.5h0a5.122,5.122,0,0,1,0-7.243l11.74-11.741a1.327,1.327,0,0,1,1.823,0l5.419,5.419a1.289,1.289,0,0,1,0,1.824l-11.741,11.74A5.1,5.1,0,0,1,242.7,157.328Zm9.03-17.743L240.9,150.413a2.544,2.544,0,0,0,0,3.6h0a2.543,2.543,0,0,0,3.594,0l10.828-10.828Z" transform="translate(-201.672 -115.858)" fill="#28287d"/>
      <path id="Path_3098" data-name="Path 3098" d="M134.7,224.572a1.286,1.286,0,0,1-.912-.378l-19.867-19.868a1.289,1.289,0,0,1,1.824-1.823l19.868,19.868a1.29,1.29,0,0,1-.913,2.2Z" transform="translate(-96.38 -171.578)" fill="#28287d"/>
      <path id="Path_3099" data-name="Path 3099" d="M273.8,363.685a1.285,1.285,0,0,1-.912-.378l-3.612-3.612a1.289,1.289,0,1,1,1.823-1.823l3.612,3.612a1.29,1.29,0,0,1-.912,2.2Z" transform="translate(-228.262 -303.466)" fill="#28287d"/>
      <path id="Path_3100" data-name="Path 3100" d="M72.761,365.934a3.2,3.2,0,0,1-2.275-.941l-4.5-4.5a3.219,3.219,0,0,1,0-4.553l4.055-4.055a1.288,1.288,0,0,1,1.824,0l7.225,7.225a1.289,1.289,0,0,1,0,1.823l-4.055,4.055A3.213,3.213,0,0,1,72.761,365.934Zm-1.806-11.309-3.143,3.143a.64.64,0,0,0,0,.905l4.5,4.5h0a.641.641,0,0,0,.9,0l3.143-3.143Z" transform="translate(-55.216 -298.387)" fill="#28287d"/>
      <path id="Path_3101" data-name="Path 3101" d="M4.906,416.44a1.286,1.286,0,0,1-.912-.378L.382,412.45a1.289,1.289,0,0,1,0-1.823L11.219,399.79a1.327,1.327,0,0,1,1.824,0l3.612,3.612a1.288,1.288,0,0,1,0,1.824L5.818,416.062A1.286,1.286,0,0,1,4.906,416.44Zm-1.789-4.9,1.789,1.789,9.013-9.013-1.789-1.789Z" transform="translate(-0.004 -339.063)" fill="#28287d"/>
      <path id="Path_3102" data-name="Path 3102" d="M251.849,43.06h0a1.287,1.287,0,0,1-.912-.378l-9.03-9.031a1.289,1.289,0,0,1,0-1.824l4.507-4.506-3.6-3.6-4.506,4.507a1.327,1.327,0,0,1-1.823,0l-9.031-9.03a1.289,1.289,0,0,1,0-1.824L243.711,1.125a3.851,3.851,0,0,1,5.44,0l19.864,19.864h0a3.853,3.853,0,0,1,0,5.44L252.76,42.682A1.289,1.289,0,0,1,251.849,43.06Zm-7.207-10.321,7.207,7.208L267.19,24.606a1.27,1.27,0,0,0,0-1.793L247.327,2.948a1.272,1.272,0,0,0-1.793,0L230.193,18.291,237.4,25.5l4.506-4.507a1.327,1.327,0,0,1,1.824,0l5.419,5.419a1.289,1.289,0,0,1,0,1.824Z" transform="translate(-192.763 0)" fill="#28287d"/>
      <path id="Path_3103" data-name="Path 3103" d="M87.449,151.887a1.285,1.285,0,0,1-.912-.378L72.088,137.06a1.291,1.291,0,0,1-.312-1.319L78.1,116.775a1.292,1.292,0,0,1,.312-.5l15.352-15.352a1.288,1.288,0,0,1,1.824,0l10.837,10.837a1.288,1.288,0,0,1,0,1.824L100.1,119.9a2.544,2.544,0,0,0,0,3.6,2.6,2.6,0,0,0,3.594,0l6.322-6.322a1.288,1.288,0,0,1,1.824,0l10.837,10.837a1.288,1.288,0,0,1,0,1.824l-15.35,15.352a1.307,1.307,0,0,1-.5.312l-18.965,6.322A1.3,1.3,0,0,1,87.449,151.887ZM74.475,135.8,87.8,149.122l17.92-5.974,14.225-14.225-9.013-9.015-5.41,5.41a5.242,5.242,0,0,1-7.241,0,5.122,5.122,0,0,1,0-7.243l5.41-5.41-9.013-9.013L80.449,117.878Z" transform="translate(-60.873 -85.346)" fill="#28287d"/>
      <path id="Path_3104" data-name="Path 3104" d="M141.225,290.868a1.285,1.285,0,0,1-.912-.378l-14.449-14.449a1.289,1.289,0,0,1,1.824-1.823l14.449,14.449a1.29,1.29,0,0,1-.912,2.2Z" transform="translate(-106.522 -232.455)" fill="#28287d"/>
      <path id="Path_3105" data-name="Path 3105" d="M134,331.447a1.286,1.286,0,0,1-.912-.378l-7.225-7.225a1.289,1.289,0,0,1,1.824-1.824l7.225,7.225a1.29,1.29,0,0,1-.912,2.2Z" transform="translate(-106.522 -273.034)" fill="#28287d"/>
    </g>
  </g>
  <g id="Group_11061" data-name="Group 11061" transform="translate(38.688 37.115)">
    <ellipse id="Ellipse_159" data-name="Ellipse 159" cx="20.131" cy="20.131" rx="20.131" ry="20.131" transform="translate(0)" fill="#fff"/>
    <path id="Path_3084" data-name="Path 3084" d="M365.78,240.117a20.325,20.325,0,0,0-2.317.134,20.131,20.131,0,0,1,0,40,20.131,20.131,0,1,0,2.317-40.129Z" transform="translate(-345.649 -240.117)" fill="#dbdbdb"/>
    <g id="Group_11063" data-name="Group 11063" transform="translate(10.208 11.814)">
      <g id="Group_11061-2" data-name="Group 11061" transform="matrix(0.682, -0.731, 0.731, 0.682, 0, 3.678)">
        <g id="Group_11051" data-name="Group 11051" transform="translate(0 0)">
          <path id="Path_3085" data-name="Path 3085" d="M2.335,18.613A2.335,2.335,0,0,1,0,16.278V2.335a2.335,2.335,0,0,1,4.671,0V16.278a2.335,2.335,0,0,1-2.335,2.335Z" transform="translate(0 0)" fill="#040734"/>
        </g>
        <path id="Path_3087" data-name="Path 3087" d="M1.168,0A2.322,2.322,0,0,0,0,.315a2.333,2.333,0,0,1,1.168,2.02V16.278A2.333,2.333,0,0,1,0,18.3a2.332,2.332,0,0,0,3.5-2.02V2.335A2.336,2.336,0,0,0,1.168,0Z" transform="translate(1.168 0)" fill="#040734"/>
      </g>
      <g id="Group_11062" data-name="Group 11062" transform="matrix(-0.719, -0.695, 0.695, -0.719, 3.614, 16.634)">
        <g id="Group_11051-2" data-name="Group 11051" transform="translate(0 0)">
          <path id="Path_3085-2" data-name="Path 3085" d="M2.335,0A2.335,2.335,0,0,0,0,2.335V16.278a2.335,2.335,0,0,0,4.671,0V2.335A2.335,2.335,0,0,0,2.335,0Z" transform="translate(0 0)" fill="#040734"/>
        </g>
        <path id="Path_3087-2" data-name="Path 3087" d="M1.168,18.613A2.322,2.322,0,0,1,0,18.3a2.333,2.333,0,0,0,1.168-2.02V2.335A2.333,2.333,0,0,0,0,.315a2.332,2.332,0,0,1,3.5,2.02V16.278A2.336,2.336,0,0,1,1.168,18.613Z" transform="translate(1.168 0)" fill="#040734"/>
      </g>
    </g>
  </g>
</svg>
