<svg id="No_Complexity" data-name="No Complexity" xmlns="http://www.w3.org/2000/svg" width="75.092" height="69.296" viewBox="0 0 75.092 69.296">
  <g id="coding">
    <path id="Path_3106" data-name="Path 3106" d="M241,391h3.507v10.522H241Z" transform="translate(-212.826 -347.16)" fill="#d5e8fe"/>
    <path id="Path_3107" data-name="Path 3107" d="M256,391h1.754v10.522H256Z" transform="translate(-226.072 -347.16)" fill="#b5dbff"/>
    <path id="Path_3108" data-name="Path 3108" d="M0,16V61.593H59.856V16Z" transform="translate(0 -16)" fill="#1c4e74"/>
    <path id="Path_3109" data-name="Path 3109" d="M256,16h29.928V61.593H256Z" transform="translate(-226.072 -16)" fill="#28287d"/>
    <path id="Path_3110" data-name="Path 3110" d="M121,466h31.565v3.507H121Z" transform="translate(-106.854 -413.392)" fill="#edf5ff"/>
    <path id="Path_3111" data-name="Path 3111" d="M256,466h15.782v3.507H256Z" transform="translate(-226.072 -413.392)" fill="#d5e8fe"/>
    <g id="Group_11067" data-name="Group 11067" transform="translate(7.068 24.121)">
      <path id="Path_3112" data-name="Path 3112" d="M226.095,236.194l-5.331,4.559-2.35,2.034-2.315-2.665,4.594-3.928-4.594-3.928,2.315-2.665,2.35,2.034Z" transform="translate(-197.904 -228.75)" fill="#c4fbff"/>
      <path id="Path_3113" data-name="Path 3113" d="M68.149,242.8l-7.691-6.591,7.691-6.591,2.281,2.661-4.584,3.93,4.584,3.93Z" transform="translate(-60.458 -228.766)" fill="#c4fbff"/>
      <path id="Path_3114" data-name="Path 3114" d="M0,0H14.46V3.505H0Z" transform="translate(10.629 14.027) rotate(-75.992)" fill="#c4fbff"/>
    </g>
    <path id="Path_3115" data-name="Path 3115" d="M181,106h3.507v3.507H181Z" transform="translate(-159.84 -95.478)" fill="#fff"/>
    <path id="Path_3116" data-name="Path 3116" d="M241,106h3.507v3.507H241Z" transform="translate(-212.826 -95.478)" fill="#fff"/>
    <path id="Path_3117" data-name="Path 3117" d="M361,166h3.507v3.507H361Z" transform="translate(-318.797 -148.464)" fill="#040734"/>
    <path id="Path_3118" data-name="Path 3118" d="M421,166h3.507v3.507H421Z" transform="translate(-371.783 -148.464)" fill="#040734"/>
    <path id="Path_3119" data-name="Path 3119" d="M361,286h3.507v3.507H361Z" transform="translate(-318.797 -254.435)" fill="#00c8c8"/>
    <path id="Path_3120" data-name="Path 3120" d="M421,286h3.507v3.507H421Z" transform="translate(-371.783 -254.435)" fill="#00c8c8"/>
    <path id="Path_3121" data-name="Path 3121" d="M301,106h17.536v3.507H301Z" transform="translate(-265.811 -95.478)" fill="#00c8c8"/>
    <path id="Path_3122" data-name="Path 3122" d="M331,226h3.507v3.507H331Z" transform="translate(-292.304 -201.45)" fill="#fdbf00"/>
    <path id="Path_3123" data-name="Path 3123" d="M391,226h7.014v3.507H391Z" transform="translate(-345.29 -201.45)" fill="#fdbf00"/>
    <path id="Path_3124" data-name="Path 3124" d="M61,106H71.522v3.507H61Z" transform="translate(-53.869 -95.478)" fill="#fff"/>
    <path id="Path_3125" data-name="Path 3125" d="M181,166h17.536v3.507H181Z" transform="translate(-159.84 -148.464)" fill="#040734"/>
    <path id="Path_3126" data-name="Path 3126" d="M91,166h7.014v3.507H91Z" transform="translate(-80.362 -148.464)" fill="#fff"/>
    <path id="Path_3127" data-name="Path 3127" d="M256,106h1.754v3.507H256Z" transform="translate(-226.072 -95.478)" fill="#fff"/>
    <path id="Path_3128" data-name="Path 3128" d="M256,247l5.331,4.559L256,256.119Z" transform="translate(-226.072 -219.995)" fill="#00c8c8"/>
    <path id="Path_3129" data-name="Path 3129" d="M256,166h8.768v3.507H256Z" transform="translate(-226.072 -148.464)" fill="#040734"/>
  </g>
  <g id="Group_11670" data-name="Group 11670" transform="translate(31.159 25.364)">
    <ellipse id="Ellipse_159" data-name="Ellipse 159" cx="21.966" cy="21.966" rx="21.966" ry="21.966" fill="#fff"/>
    <path id="Path_3084" data-name="Path 3084" d="M365.991,240.117a22.178,22.178,0,0,0-2.528.146,21.966,21.966,0,0,1,0,43.641,21.966,21.966,0,1,0,2.528-43.787Z" transform="translate(-344.025 -240.117)" fill="#dbdbdb"/>
    <g id="Group_11063" data-name="Group 11063" transform="translate(11.139 12.891)">
      <g id="Group_11061" data-name="Group 11061" transform="matrix(0.682, -0.731, 0.731, 0.682, 0, 4.013)">
        <g id="Group_11051" data-name="Group 11051" transform="translate(0 0)">
          <path id="Path_3085" data-name="Path 3085" d="M2.548,20.31A2.548,2.548,0,0,1,0,17.762V2.548a2.548,2.548,0,0,1,5.1,0V17.762A2.548,2.548,0,0,1,2.548,20.31Z" transform="translate(0 0)" fill="#040734"/>
        </g>
        <path id="Path_3087" data-name="Path 3087" d="M1.274,0A2.534,2.534,0,0,0,0,.344a2.545,2.545,0,0,1,1.274,2.2V17.762A2.545,2.545,0,0,1,0,19.967a2.545,2.545,0,0,0,3.822-2.2V2.548A2.548,2.548,0,0,0,1.274,0Z" transform="translate(1.274 0)" fill="#040734"/>
      </g>
      <g id="Group_11062" data-name="Group 11062" transform="matrix(-0.719, -0.695, 0.695, -0.719, 3.944, 18.15)">
        <g id="Group_11051-2" data-name="Group 11051" transform="translate(0 0)">
          <path id="Path_3085-2" data-name="Path 3085" d="M2.548,0A2.548,2.548,0,0,0,0,2.548V17.762a2.548,2.548,0,0,0,5.1,0V2.548A2.548,2.548,0,0,0,2.548,0Z" transform="translate(0 0)" fill="#040734"/>
        </g>
        <path id="Path_3087-2" data-name="Path 3087" d="M1.274,20.31A2.534,2.534,0,0,1,0,19.967a2.545,2.545,0,0,0,1.274-2.2V2.548A2.545,2.545,0,0,0,0,.344a2.545,2.545,0,0,1,3.822,2.2V17.762A2.548,2.548,0,0,1,1.274,20.31Z" transform="translate(1.274 0)" fill="#040734"/>
      </g>
    </g>
  </g>
</svg>
