<svg xmlns="http://www.w3.org/2000/svg" width="44.008" height="43.478" viewBox="0 0 44.008 43.478">
  <g id="_2_factor_Authentication" data-name="2 factor Authentication" transform="translate(0.5 0.559)">
    <path id="Path_21" data-name="Path 21" d="M33.592,19.754c0-.076,0-11.356,0-11.356L16.8,0,0,8.4V19.525A20.8,20.8,0,0,0,9.276,36.86L16.8,41.873l5.795-3.86a11.413,11.413,0,1,0,11-18.26ZM16.8,40.26l-6.776-4.517A19.457,19.457,0,0,1,1.344,19.525V9.229L16.8,1.5,32.252,9.229V19.6c-.223-.013-.444-.034-.672-.034s-.449.021-.672.034V10.058L16.8,3,2.688,10.059v9.466a18.121,18.121,0,0,0,8.08,15.1L16.8,38.642l4.4-2.929a11.386,11.386,0,0,0,.636,1.194Zm3.893-5.826L16.8,37.028l-5.285-3.521c-.261-.174-.513-.357-.763-.544V26.956H9.407v4.878A16.785,16.785,0,0,1,7.391,29.6v-3.9a2.016,2.016,0,0,1,1.525-1.954L13.472,22.6a3.356,3.356,0,0,0,2.654,2.95V28.3H17.47V25.545a3.354,3.354,0,0,0,2.653-2.95l2.991.751a11.365,11.365,0,0,0-2.423,11.087ZM13.438,14.19H15.3a7.078,7.078,0,0,0,3-.672h.182l1.68,2.24v2.8l-2.24,1.68h-2.24l-2.24-1.68ZM12.15,12.846A2.629,2.629,0,0,1,13.59,10.9a6.785,6.785,0,0,1,4.718-.3l.155.223h1.023a.672.672,0,0,1,.672.672v2.016L19.15,12.174H17.983l-.142.071a5.73,5.73,0,0,1-2.546.6Zm6.664,8.4v1.008a2.016,2.016,0,0,1-4.032,0V21.245l.448.336h3.135Zm1.344-.026v-.982L21.5,19.229V11.5a2.016,2.016,0,0,0-2.016-2.016h-.447a7.7,7.7,0,0,0-5.107-.174,4.181,4.181,0,0,0-3.181,4.206v.672h1.344v5.039l1.344,1.008v.978l-4.85,1.22a3.354,3.354,0,0,0-2.541,3.257v1.814a16.78,16.78,0,0,1-2.016-7.982V10.889L16.8,4.506l12.767,6.383v8.636c0,.077,0,.154-.005.23a11.37,11.37,0,0,0-5.316,2.49ZM31.58,41.067A10.079,10.079,0,1,1,41.659,30.988,10.079,10.079,0,0,1,31.58,41.067Zm0,0" transform="translate(0)" fill="#09ae9c" stroke="#09ae9c" stroke-width="1"/>
    <path id="Path_22" data-name="Path 22" d="M416,136.945h8.063v1.344H416Zm0,0" transform="translate(-381.06 -125.443)" fill="#09ae9c" stroke="#09ae9c" stroke-width="1"/>
    <path id="Path_23" data-name="Path 23" d="M416,168.945h5.375v1.344H416Zm0,0" transform="translate(-381.06 -154.755)" fill="#09ae9c" stroke="#09ae9c" stroke-width="1"/>
    <path id="Path_24" data-name="Path 24" d="M416,200.945h2.688v1.344H416Zm0,0" transform="translate(-381.06 -184.068)" fill="#09ae9c" stroke="#09ae9c" stroke-width="1"/>
    <path id="Path_25" data-name="Path 25" d="M279.184,290.749l-2.375-2.375-3.8,3.8,6.176,6.176L289.637,287.9l-3.8-3.8Zm0,5.7-4.276-4.276,1.9-1.9,2.375,2.375L285.836,286l1.9,1.9Zm0,0" transform="translate(-250.078 -260.236)" fill="#09ae9c" stroke="#09ae9c" stroke-width="1"/>
  </g>
</svg>
