<svg xmlns="http://www.w3.org/2000/svg" width="43.489" height="47.018" viewBox="0 0 43.489 47.018">
  <g id="Ecomerce" transform="translate(-19.214)">
    <path id="Path_4" data-name="Path 4" d="M308.969,346.575l-2.5-2.827-2.064,1.825,4.475,5.061,7.247-7.507-1.982-1.913Z" transform="translate(-259.002 -309.878)" fill="#fa0"/>
    <path id="Path_5" data-name="Path 5" d="M51.377,24.366c-.251,0-.5.009-.747.025l-.8-13.673H43.313V8.06a8.06,8.06,0,0,0-16.121,0v2.659H20.674L19.226,35.5a6.948,6.948,0,0,0,6.936,7.353H42.611a11.324,11.324,0,1,0,8.766-18.489ZM29.947,8.06a5.305,5.305,0,0,1,10.611,0v2.659H29.947ZM26.162,40.1a4.193,4.193,0,0,1-4.186-4.438l1.3-22.189h3.92v3.452h2.755V13.474H40.558v3.452h2.755V13.474h3.92L47.9,24.913A11.326,11.326,0,0,0,40.944,40.1H26.162Zm25.215,4.163a8.571,8.571,0,1,1,8.571-8.571A8.581,8.581,0,0,1,51.377,44.263Z" fill="#fa0"/>
  </g>
</svg>
