<svg xmlns="http://www.w3.org/2000/svg" width="48.768" height="41.603" viewBox="0 0 48.768 41.603">
  <g id="Financial_Services" data-name="Financial Services" transform="translate(-1.5 -5.5)">
    <path id="Path_17" data-name="Path 17" d="M40.273,11.573A9.142,9.142,0,0,0,24.042,10.4a9.073,9.073,0,0,0-5.721-2.009,9.166,9.166,0,0,0-9.156,9.156v1.99H7.573a5.569,5.569,0,0,0-.8,11.082v13.6A2.391,2.391,0,0,0,9.165,46.6H44.991V45.011H41.011V30.64a9.55,9.55,0,0,0-.738-19.067ZM15.534,45.011H12.35V39.438h3.185Zm7.961,0H20.311V35.457H23.5Zm7.961,0H28.273V31.476h3.185Zm4.777,0V26.7h3.185V45.011Zm4.777-15.963V25.9a.8.8,0,0,0-.8-.8H35.438a.8.8,0,0,0-.8.8V45.011H33.049V30.68a.8.8,0,0,0-.8-.8H27.476a.8.8,0,0,0-.8.8v14.33H25.088V34.661a.8.8,0,0,0-.8-.8H19.515a.8.8,0,0,0-.8.8v10.35H17.127V38.642a.8.8,0,0,0-.8-.8H11.554a.8.8,0,0,0-.8.8v6.369H9.165a.8.8,0,0,1-.8-.8V30.68H12.35V29.088H7.573a3.981,3.981,0,1,1,0-7.961H9.961a.8.8,0,0,0,.8-.8V17.544A7.561,7.561,0,0,1,23.7,12.229.8.8,0,0,0,24.988,12a7.552,7.552,0,0,1,13.991.633.8.8,0,0,0,.751.53h.486a7.961,7.961,0,0,1,.8,15.882Z" fill="#09ae9c" stroke="#09ae9c" stroke-width="1"/>
    <path id="Path_18" data-name="Path 18" d="M50,18v1.592a3.188,3.188,0,0,1,3.185,3.185h1.592A4.782,4.782,0,0,0,50,18Z" transform="translate(-9.785 -2.446)" fill="#09ae9c" stroke="#09ae9c" stroke-width="1"/>
    <path id="Path_19" data-name="Path 19" d="M54,26h1.592v1.592H54Z" transform="translate(-10.601 -4.077)" fill="#09ae9c" stroke="#09ae9c" stroke-width="1"/>
    <path id="Path_20" data-name="Path 20" d="M38.472,14.6a.8.8,0,0,0-1.236-.455l-5.573,3.981a.8.8,0,0,0,.463,1.444h.942A12.27,12.27,0,0,1,22.4,24.636l-4.558-.285a.775.775,0,0,0-.595.214.8.8,0,0,0-.251.58v6.369a.8.8,0,0,0,.8.8h.037l6.734-.321A13.8,13.8,0,0,0,37.388,21.111l.049-.226,1.414.943a.8.8,0,0,0,1.214-.856Zm-1.127,4.308a.8.8,0,0,0-1.22.5l-.294,1.372A12.2,12.2,0,0,1,24.492,30.4l-5.9.28V25.993l3.712.232a13.834,13.834,0,0,0,12.907-7.062.8.8,0,0,0-.607-1.177l2.607-1.862.809,3.237Z" transform="translate(-3.058 -1.631)" fill="#09ae9c" stroke="#09ae9c" stroke-width="1"/>
  </g>
</svg>
