<svg xmlns="http://www.w3.org/2000/svg" width="48.094" height="47.636" viewBox="0 0 48.094 47.636">
  <g id="Marketing" transform="translate(0.501 0.519)">
    <path id="Path_10" data-name="Path 10" d="M91.339,118.6a3.03,3.03,0,0,0,3-2.669.812.812,0,0,1,.691,0,3.026,3.026,0,1,0,.084-1.149,1.932,1.932,0,0,0-.86,0,3.025,3.025,0,1,0-2.92,3.818Zm6.7-4.93a1.9,1.9,0,1,1-1.9,1.9,1.9,1.9,0,0,1,1.9-1.9Zm-6.7,0a1.9,1.9,0,1,1-1.9,1.9A1.9,1.9,0,0,1,91.339,113.671Zm0,0" transform="translate(-80.062 -99.244)" fill="#fa0" stroke="#fa0" stroke-width="1"/>
    <path id="Path_11" data-name="Path 11" d="M44.841,25.6l-2.233-.3V20.112a.749.749,0,0,0-.247-.559.483.483,0,0,0-.515-.082L29.977,24.565H23.914a1.76,1.76,0,0,0-1.583,1.874v3.5H20.556V26.684a4.679,4.679,0,0,1,.464-.559,12.654,12.654,0,0,0,2.62-7.887V7.466a6.24,6.24,0,0,0,1.719-2.328A11.2,11.2,0,0,0,26.2.772.757.757,0,0,0,26,.251.492.492,0,0,0,25.547.1L19.464,1.264a6.3,6.3,0,0,1-3.2-.212L13.475.133a2.594,2.594,0,0,0-2.639.636,3.543,3.543,0,0,0-.654.83,11.64,11.64,0,0,0-4.576,9.586v7.055a12.66,12.66,0,0,0,2.631,7.887,4.142,4.142,0,0,0,.452.533v3.276H5.543C2.5,29.935,0,32.95,0,36.669v9.26a.657.657,0,0,0,.589.69H28.665a.651.651,0,0,0,.581-.69V38.166l.6-2.517h.131l11.863,5.063a.463.463,0,0,0,.185.026.53.53,0,0,0,.336-.133.765.765,0,0,0,.247-.566V34.527l2.233-.3a2.927,2.927,0,0,0,2.252-3.068V28.672A2.927,2.927,0,0,0,44.841,25.6Zm-21.388.835a.5.5,0,0,1,.461-.5h5.612v8.341H23.914a.557.557,0,0,1-.461-.564ZM11.507,1.858a1.705,1.705,0,0,1,1.165-.484,1.606,1.606,0,0,1,.507.083l2.788.92a7.228,7.228,0,0,0,3.67.242l5.41-1.04c-.2,3.045-1.536,4.655-2.707,5.129A89.817,89.817,0,0,1,11.125,8.157a.426.426,0,0,1-.38-.453V3.719a2.545,2.545,0,0,1,.762-1.861ZM9.63,3.708s-.006.008-.006.011V7.7a1.692,1.692,0,0,0,1.5,1.824h.02A5.351,5.351,0,0,1,6.727,11.4v-.22a10.594,10.594,0,0,1,2.9-7.477Zm-2.9,14.531V12.778c.187.012.3.02.451.02,2.481,0,4.416-1.725,5.685-3.349,3.712-.289,9.1-1.284,9.656-1.388V18.239a11.128,11.128,0,0,1-2.317,6.93,7.115,7.115,0,0,1-5.576,2.92,7.114,7.114,0,0,1-5.576-2.92,11.13,11.13,0,0,1-2.321-6.93Zm7.907,11.222a7.865,7.865,0,0,0,4.8-1.73v2.554a6.6,6.6,0,0,1-9.624,0V27.714a7.659,7.659,0,0,0,4.823,1.747ZM28.125,45.247h-27V36.669c0-2.963,2-5.362,4.422-5.362H9.06a7.537,7.537,0,0,0,11.109,0h2.163v2.407a2.008,2.008,0,0,0,1.121,1.813v7.526a.685.685,0,0,0,.6.709h3.41a.611.611,0,0,0,.548-.5l.114-.444ZM27.044,42.39h-2.47V35.648h4.1Zm3.6-7.962v-8.7l10.839-4.645V39.073ZM45.972,31.16a1.627,1.627,0,0,1-1.253,1.705l-2.111.283V26.684l2.111.283a1.628,1.628,0,0,1,1.253,1.706Zm0,0" transform="translate(0 0)" fill="#fa0" stroke="#fa0" stroke-width="1"/>
  </g>
</svg>
