<svg id="segment" xmlns="http://www.w3.org/2000/svg" width="63.141" height="63.141" viewBox="0 0 63.141 63.141">
  <g id="Group_11100" data-name="Group 11100" transform="translate(7.366 9.471)">
    <path id="Path_3186" data-name="Path 3186" d="M68.628,160h-2.1l1.052,8.419-2.1,2.1-2.1-2.1L64.419,160h-2.1A6.314,6.314,0,0,0,56,166.314v8.419H72.913l2.029-1.171v-7.248A6.314,6.314,0,0,0,68.628,160Zm0,0" transform="translate(-56 -148.424)" fill="#fa0"/>
    <path id="Path_3187" data-name="Path 3187" d="M294.375,177.9a8.447,8.447,0,0,0-1.757-1.337l-4.2,4.136-4.2-4.136a8.391,8.391,0,0,0-4.22,7.293v4.094l2.022,1.168h14.815v-5.262a8.435,8.435,0,0,0-2.462-5.956Zm0,0" transform="translate(-250.534 -162.805)" fill="#fa0"/>
    <path id="Path_3188" data-name="Path 3188" d="M180.628,368h-2.1l1.052,8.419-2.1,2.1-2.1-2.1L176.419,368h-2.1A6.314,6.314,0,0,0,168,374.314v5.86a30.533,30.533,0,0,0,18.942,0v-5.86A6.314,6.314,0,0,0,180.628,368Zm0,0" transform="translate(-153.267 -329.063)" fill="#fa0"/>
    <path id="Path_3189" data-name="Path 3189" d="M302.314,72A6.314,6.314,0,0,0,296,78.314v5.262h3.977a3.135,3.135,0,0,1-.82-2.1V77.262h6.314v4.209a3.135,3.135,0,0,1-.82,2.1h3.977V78.314A6.324,6.324,0,0,0,302.314,72Zm0,0" transform="translate(-264.43 -72)" fill="#fa0"/>
    <path id="Path_3190" data-name="Path 3190" d="M216.419,292.209A4.209,4.209,0,1,1,212.209,288,4.21,4.21,0,0,1,216.419,292.209Zm0,0" transform="translate(-188.005 -259.587)" fill="#fa0"/>
    <path id="Path_3191" data-name="Path 3191" d="M114.268,73.021,114.524,72H104v4.209h6.185A4.209,4.209,0,0,0,114.268,73.021Zm0,0" transform="translate(-97.686 -72)" fill="#fa0"/>
  </g>
  <path id="Path_3192" data-name="Path 3192" d="M31.57,0a31.57,31.57,0,1,0,31.57,31.57A31.571,31.571,0,0,0,31.57,0ZM61.036,31.57A29.282,29.282,0,0,1,57.59,45.38l-14.8-8.548H54.722V30.518a9.4,9.4,0,0,0-4.748-8.208L49.6,22.1h3.016V15.785a7.366,7.366,0,1,0-14.733,0V22.1H40.9l-.371.211a9.491,9.491,0,0,0-4.747,8.208v2.268l-3.157-1.824V2.131A29.5,29.5,0,0,1,61.036,31.57ZM41.041,13.68v5.262a4.14,4.14,0,0,0,.15,1.052h-1.2V15.785a5.262,5.262,0,0,1,10.523,0v4.209h-1.2a4.14,4.14,0,0,0,.15-1.052V13.68Zm6.314,2.1v3.157a2.1,2.1,0,0,1-4.209,0V15.785ZM42.5,22.1a4.133,4.133,0,0,0,5.51,0h1.088l-3.843,3.789L41.408,22.1Zm2.755,6.735,4.339-4.273a7.1,7.1,0,0,1,.871.737,7.359,7.359,0,0,1,2.156,5.22v4.209h-2.1V30.518h-2.1v4.209H42.094V30.518h-2.1v4.209h-.842L37.884,34V30.518a7.379,7.379,0,0,1,3.03-5.95ZM12.628,9.024v6.761a4.209,4.209,0,1,0,8.419,0v-1.2a5.24,5.24,0,0,0,3.923-3.835l.582-2.329H13.376A29.3,29.3,0,0,1,30.518,2.131V30.965l-3.157,1.824V27.361a7.375,7.375,0,0,0-7.366-7.366H13.681a7.375,7.375,0,0,0-7.366,7.366v9.471H20.351L5.55,45.378A29.406,29.406,0,0,1,12.628,9.024Zm7.237,3.6H14.733v-2.1h8.1a3.151,3.151,0,0,1-2.971,2.1Zm-5.132,2.1h4.209v1.052a2.1,2.1,0,1,1-4.209,0Zm9.26,19.995h-.842V27.361h-2.1v7.366H12.628V27.361h-2.1v7.366h-2.1V27.361A5.268,5.268,0,0,1,13.68,22.1h.913l-.969,7.746,3.213,3.213,3.213-3.213L19.082,22.1h.913a5.268,5.268,0,0,1,5.262,5.262V34ZM16.961,22.1l.873,6.987-1,1-1-1,.873-6.987Zm10.4,38.632V54.722h-2.1v5.626q-1.067-.234-2.1-.544V54.722a5.268,5.268,0,0,1,5.262-5.262h.913l-.969,7.746,3.213,3.213,3.213-3.213-.969-7.746h.913a5.268,5.268,0,0,1,5.262,5.262V59.8q-1.037.315-2.1.544V54.722h-2.1v6.009a29.179,29.179,0,0,1-8.419,0ZM31.694,49.46l.873,6.987-1,1-1-1,.873-6.987Zm10.4,9.626V54.722a7.375,7.375,0,0,0-7.366-7.366H28.413a7.375,7.375,0,0,0-7.366,7.366v4.364A29.625,29.625,0,0,1,6.607,47.2L31.57,32.786,56.532,47.2A29.616,29.616,0,0,1,42.094,59.086Zm0,0" fill="#fa0"/>
  <path id="Path_3193" data-name="Path 3193" d="M210.523,285.262a5.262,5.262,0,1,0-5.262,5.262A5.262,5.262,0,0,0,210.523,285.262Zm-5.262,3.157a3.157,3.157,0,1,1,3.157-3.157A3.157,3.157,0,0,1,205.262,288.419Zm0,0" transform="translate(-173.691 -243.168)" fill="#fa0"/>
</svg>
