<svg id="Send_Bulk_Sms" data-name="Send Bulk Sms" xmlns="http://www.w3.org/2000/svg" width="52.946" height="52.949" viewBox="0 0 52.946 52.949">
  <g id="Group_11097" data-name="Group 11097" transform="translate(0 0)">
    <path id="Path_3156" data-name="Path 3156" d="M78.081,281.541H56.848a.776.776,0,1,0,0,1.551H78.081a.776.776,0,0,0,0-1.551Z" transform="translate(-50.275 -252.425)" fill="#fa0"/>
    <path id="Path_3157" data-name="Path 3157" d="M78.081,328.871H56.848a.776.776,0,1,0,0,1.551H78.081a.776.776,0,0,0,0-1.551Z" transform="translate(-50.275 -294.86)" fill="#fa0"/>
    <path id="Path_3158" data-name="Path 3158" d="M67.464,376.2H56.848a.776.776,0,0,0,0,1.551H67.464a.776.776,0,0,0,0-1.551Z" transform="translate(-50.275 -337.295)" fill="#fa0"/>
    <path id="Path_3159" data-name="Path 3159" d="M275.4,186.88H254.165a.776.776,0,1,0,0,1.551H275.4a.776.776,0,1,0,0-1.551Z" transform="translate(-227.186 -167.553)" fill="#fa0"/>
    <path id="Path_3160" data-name="Path 3160" d="M367.441,234.21H356.825a.776.776,0,1,0,0,1.551h10.617a.776.776,0,1,0,0-1.551Z" transform="translate(-319.229 -209.989)" fill="#fa0"/>
    <path id="Path_3161" data-name="Path 3161" d="M39.726,43.82H55.238a.776.776,0,0,0,0-1.551H39.726a.776.776,0,1,0,0,1.551Z" transform="translate(-34.923 -37.898)" fill="#fa0"/>
    <path id="Path_3162" data-name="Path 3162" d="M39.726,81.318h7.756a.776.776,0,1,0,0-1.551H39.726a.776.776,0,1,0,0,1.551Z" transform="translate(-34.923 -71.518)" fill="#fa0"/>
    <path id="Path_3163" data-name="Path 3163" d="M29.388,225.624H5.021A5.012,5.012,0,0,0,.015,230.63v12.586a5.012,5.012,0,0,0,5.006,5.006H5.2l-1,5.566A1.233,1.233,0,0,0,6.256,254.9l6.863-6.515a.593.593,0,0,1,.41-.164H29.388a5.012,5.012,0,0,0,5.006-5.006V230.63a5.012,5.012,0,0,0-5.006-5.006Zm3.455,17.592a3.459,3.459,0,0,1-3.455,3.455H13.53a2.138,2.138,0,0,0-1.478.59l-6.16,5.847.87-4.832a1.363,1.363,0,0,0-1.341-1.6h-.4a3.459,3.459,0,0,1-3.455-3.455V230.63a3.459,3.459,0,0,1,3.455-3.455H29.388a3.459,3.459,0,0,1,3.455,3.455Z" transform="translate(-0.015 -202.291)" fill="#fa0"/>
    <path id="Path_3164" data-name="Path 3164" d="M3.4,13.8H9.19a.034.034,0,0,1,.029.017l2.471,4.266a1.423,1.423,0,0,0,2.462,0l2.471-4.266a.033.033,0,0,1,.029-.017h5.785a3.006,3.006,0,0,0,3-3V3a3.006,3.006,0,0,0-3-3H3.4a3.006,3.006,0,0,0-3,3V3.33a.776.776,0,1,0,1.551,0V3A1.453,1.453,0,0,1,3.4,1.551H22.437A1.453,1.453,0,0,1,23.888,3v7.792a1.453,1.453,0,0,1-1.451,1.451H16.651a1.59,1.59,0,0,0-1.371.79L12.92,17.11l-2.36-4.074a1.589,1.589,0,0,0-1.371-.79H3.4a1.453,1.453,0,0,1-1.451-1.451V6.956a.776.776,0,0,0-1.551,0v3.838a3.006,3.006,0,0,0,3,3Z" transform="translate(-0.362 0)" fill="#fa0"/>
    <path id="Path_3165" data-name="Path 3165" d="M241.282,140.754H219.645a4.537,4.537,0,0,0-4.532,4.532v1.395a.776.776,0,1,0,1.551,0v-1.395a2.984,2.984,0,0,1,2.981-2.981h21.637a2.984,2.984,0,0,1,2.981,2.981v11.029a2.984,2.984,0,0,1-2.981,2.981h-.355a1.3,1.3,0,0,0-1.277,1.527l.726,4.03-5.277-5.009a1.985,1.985,0,0,0-1.372-.548H230.1a.776.776,0,1,0,0,1.551h3.629a.44.44,0,0,1,.3.121l6.094,5.785a1.182,1.182,0,0,0,1.977-1.067l-.872-4.84h.051a4.537,4.537,0,0,0,4.532-4.532V145.286A4.537,4.537,0,0,0,241.282,140.754Z" transform="translate(-192.868 -126.198)" fill="#fa0"/>
  </g>
</svg>
