<svg xmlns="http://www.w3.org/2000/svg" width="36.864" height="48.395" viewBox="0 0 36.864 48.395">
  <g id="Transport_and_logistics" data-name="Transport and logistics" transform="translate(-61)">
    <path id="Path_6" data-name="Path 6" d="M97.864,39.888H70.925a1.419,1.419,0,0,1-1.418-1.418V4.253A4.258,4.258,0,0,0,65.253,0H61V2.836h4.253a1.419,1.419,0,0,1,1.418,1.418V38.47a4.247,4.247,0,0,0,3.148,4.089,4.26,4.26,0,1,0,7.934.163h9.029a4.214,4.214,0,0,0-.261,1.419,4.253,4.253,0,1,0,8.507,0,4.2,4.2,0,0,0-.261-1.418h3.1Z" fill="#09ae9c"/>
    <path id="Path_7" data-name="Path 7" d="M211,121v8.507h17.014V121h-7.089v2.836h-2.836V121Z" transform="translate(-135.822 -109.563)" fill="none" stroke="#09ae9c" stroke-width="2"/>
    <path id="Path_8" data-name="Path 8" d="M286,241h2.836v2.836H286Z" transform="translate(-203.733 -218.22)" fill="#09ae9c"/>
    <path id="Path_9" data-name="Path 9" d="M196.6,246.671h-8.507V241H181v14.273h22.685V241H196.6Z" transform="translate(-108.657 -218.22)" fill="none" stroke="#09ae9c" stroke-width="2"/>
  </g>
</svg>
