<svg xmlns="http://www.w3.org/2000/svg" width="41.494" height="42.65" viewBox="0 0 41.494 42.65">
  <g id="Travel_Agency" data-name="Travel Agency" transform="translate(0 -19.546)">
    <path id="Path_12" data-name="Path 12" d="M40.885,38.958a.647.647,0,0,0,.609-.678V31.766a4.315,4.315,0,0,0-4.062-4.522H36.176v-.9a1.63,1.63,0,0,0-1.535-1.708H33.555a1.63,1.63,0,0,0-1.535,1.708v.9h-3.1v-.9a1.685,1.685,0,0,0-1.162-1.655v-1.5a3.477,3.477,0,0,0-3.273-3.643H22.045a.682.682,0,0,0,0,1.356h2.438a2.182,2.182,0,0,1,2.054,2.286v1.45H25.318v-1.45a.887.887,0,0,0-.835-.93H17.092a.887.887,0,0,0-.835.93v1.45H15.038v-1.45A2.182,2.182,0,0,1,17.092,20.9h2.356a.682.682,0,0,0,0-1.356H17.092a3.477,3.477,0,0,0-3.273,3.643v1.5a1.685,1.685,0,0,0-1.162,1.655v.9h-3.1v-.9A1.63,1.63,0,0,0,8.02,24.638H6.934A1.63,1.63,0,0,0,5.4,26.346v.9H4.062A4.315,4.315,0,0,0,0,31.766V57.674A4.315,4.315,0,0,0,4.062,62.2H37.432a4.315,4.315,0,0,0,4.062-4.522v-16.5a.613.613,0,1,0-1.219,0v16.5a3.021,3.021,0,0,1-2.844,3.165H33.178V46.052h.13a3.041,3.041,0,0,0,2.863-3.187V39.521a3.041,3.041,0,0,0-2.863-3.187h-.13V28.6h4.253a3.021,3.021,0,0,1,2.844,3.165V38.28a.646.646,0,0,0,.609.678ZM29.221,36.334a3.041,3.041,0,0,0-2.863,3.187v3.344a3.041,3.041,0,0,0,2.863,3.187h.13V60.839H12.225V55.97L15.8,54.552a1.4,1.4,0,0,0,.74-1.734l-1.23-3.846a1.193,1.193,0,0,0-1.558-.824l-1.531.606v-2.7h.13a3.041,3.041,0,0,0,2.863-3.187V39.521a3.041,3.041,0,0,0-2.863-3.187h-.13V28.6H29.351v7.734h-.13ZM8.4,56.046l-1.941.768L5.227,52.965,8.4,51.71ZM8.267,44.7a1.747,1.747,0,0,1-1.644-1.83V39.521a1.747,1.747,0,0,1,1.644-1.83h4.087A1.747,1.747,0,0,1,14,39.521v3.344a1.747,1.747,0,0,1-1.644,1.83Zm3.957,5.5,1.941-.767,1.229,3.848-3.17,1.256Zm11.932-22.95v-.9a.336.336,0,0,1,.316-.352h2.911a.336.336,0,0,1,.316.352v.9ZM24.1,23.615v1.076a1.685,1.685,0,0,0-1.162,1.655v.9h-4.3v-.9a1.685,1.685,0,0,0-1.162-1.655V23.615ZM13.876,26.346a.336.336,0,0,1,.316-.352H17.1a.336.336,0,0,1,.316.352v.9H13.876Zm-7.258,0a.336.336,0,0,1,.316-.352H8.02a.336.336,0,0,1,.316.352v.9H6.618Zm-5.4,31.328V31.766A3.021,3.021,0,0,1,4.062,28.6H8.4v2.407a.613.613,0,1,0,1.219,0V28.6h1.39v7.734H9.616V33.9a.613.613,0,1,0-1.219,0v2.436h-.13A3.041,3.041,0,0,0,5.4,39.521v3.344a3.041,3.041,0,0,0,2.863,3.187H8.4V50.27L4.819,51.687a1.268,1.268,0,0,0-.693.7,1.489,1.489,0,0,0-.047,1.038l1.23,3.846a1.309,1.309,0,0,0,.626.771,1.1,1.1,0,0,0,.932.053L8.4,57.486v3.354H4.062a3.021,3.021,0,0,1-2.844-3.165Zm8.4,3.165V46.052h1.39V60.839Zm22.344,0h-1.39V46.052h1.39Zm2.993-21.318v3.344a1.747,1.747,0,0,1-1.644,1.83H29.221a1.747,1.747,0,0,1-1.644-1.83V39.521a1.747,1.747,0,0,1,1.644-1.83h4.087A1.747,1.747,0,0,1,34.953,39.521Zm-4.383-3.187V28.6h1.39v7.734Zm2.67-9.09v-.9a.336.336,0,0,1,.316-.352h1.086a.336.336,0,0,1,.316.352v.9Z" transform="translate(0 0)" fill="#09ae9c"/>
    <path id="Path_13" data-name="Path 13" d="M101.455,238.447v-2.637a.609.609,0,0,0-.609-.609h-3.72a.609.609,0,0,0-.609.609v2.637a.609.609,0,0,0,.609.609h3.72A.609.609,0,0,0,101.455,238.447Zm-1.219-.609h-2.5v-1.419h2.5Z" transform="translate(-88.675 -195.931)" fill="#09ae9c"/>
    <path id="Path_14" data-name="Path 14" d="M354.428,235.809v2.637a.609.609,0,0,0,.609.609h3.72a.609.609,0,0,0,.609-.609v-2.637a.609.609,0,0,0-.609-.609h-3.72A.609.609,0,0,0,354.428,235.809Zm1.219.609h2.5v1.419h-2.5Z" transform="translate(-325.633 -195.931)" fill="#09ae9c"/>
    <path id="Path_15" data-name="Path 15" d="M224.823,148.356a.862.862,0,0,0-.387-.83l-4.4-2.872a.867.867,0,0,0-1.282.41h0l-2,5.129a.869.869,0,0,0,.8,1.184.879.879,0,0,0,.292-.051l6.4-2.257A.863.863,0,0,0,224.823,148.356Zm-6.655,1.567,1.567-4.012,3.439,2.247Z" transform="translate(-199.088 -113.415)" fill="#09ae9c"/>
    <path id="Path_16" data-name="Path 16" d="M251.45,358.342a3.614,3.614,0,1,0,3.614-3.613A3.618,3.618,0,0,0,251.45,358.342Zm6.008,0a2.395,2.395,0,1,1-2.395-2.395A2.4,2.4,0,0,1,257.458,358.342Z" transform="translate(-231.021 -303.62)" fill="#09ae9c"/>
  </g>
</svg>
