<svg id="View_Delivery_Report" data-name="View Delivery Report" xmlns="http://www.w3.org/2000/svg" width="40.492" height="53.159" viewBox="0 0 40.492 53.159">
  <path id="Path_3166" data-name="Path 3166" d="M101.492,31.557V78.487a1.542,1.542,0,0,1-1.557,1.557H62.557A1.542,1.542,0,0,1,61,78.487V31.557A1.542,1.542,0,0,1,62.557,30H99.935A1.542,1.542,0,0,1,101.492,31.557Z" transform="translate(-61 -26.885)" fill="#fa0"/>
  <path id="Path_3167" data-name="Path 3167" d="M276.246,31.557V78.487a1.542,1.542,0,0,1-1.557,1.557H256V30h18.689A1.542,1.542,0,0,1,276.246,31.557Z" transform="translate(-235.754 -26.885)" fill="#d68f00"/>
  <path id="Path_3168" data-name="Path 3168" d="M125.263,46.661V90.372H91V46.661h12.459L105.951,45h3.987l2.865,1.661Z" transform="translate(-87.885 -40.328)" fill="#edf1f9"/>
  <path id="Path_3169" data-name="Path 3169" d="M273.131,46.661V90.372H256V45h1.807l2.865,1.661Z" transform="translate(-235.754 -40.328)" fill="#d8e0f0"/>
  <path id="Path_3170" data-name="Path 3170" d="M208.459,1.557V4.672A1.633,1.633,0,0,1,206.9,6.333h-9.344A1.633,1.633,0,0,1,196,4.672V1.557A1.542,1.542,0,0,1,197.557,0H206.9A1.542,1.542,0,0,1,208.459,1.557Z" transform="translate(-181.984)" fill="#5f5166"/>
  <path id="Path_3171" data-name="Path 3171" d="M149.033,302.557a1.542,1.542,0,0,1-1.557,1.557H122.557a1.557,1.557,0,0,1,0-3.115h24.918A1.542,1.542,0,0,1,149.033,302.557Z" transform="translate(-114.77 -269.748)" fill="#d8e0f0"/>
  <path id="Path_3172" data-name="Path 3172" d="M149.033,362.557a1.542,1.542,0,0,1-1.557,1.557H122.557a1.557,1.557,0,1,1,0-3.115h24.918A1.542,1.542,0,0,1,149.033,362.557Z" transform="translate(-114.77 -323.519)" fill="#d8e0f0"/>
  <path id="Path_3173" data-name="Path 3173" d="M281.9,424.115h-9.344a1.557,1.557,0,0,1,0-3.115H281.9a1.557,1.557,0,0,1,0,3.115Z" transform="translate(-249.197 -377.289)" fill="#b8c4d9"/>
  <path id="Path_3174" data-name="Path 3174" d="M262.23,1.557V4.672a1.633,1.633,0,0,1-1.557,1.661H256V0h4.672A1.542,1.542,0,0,1,262.23,1.557Z" transform="translate(-235.754)" fill="#45354d"/>
  <path id="Path_3175" data-name="Path 3175" d="M270.016,362.557a1.542,1.542,0,0,1-1.557,1.557H256V361h12.459A1.542,1.542,0,0,1,270.016,362.557Z" transform="translate(-235.754 -323.519)" fill="#b8c4d9"/>
  <path id="Path_3176" data-name="Path 3176" d="M268.459,304.115H256V301h12.459a1.557,1.557,0,0,1,0,3.115Z" transform="translate(-235.754 -269.748)" fill="#b8c4d9"/>
  <g id="Group_11098" data-name="Group 11098" transform="translate(12.459 12.563)">
    <path id="Path_3177" data-name="Path 3177" d="M196.574,122.557v12.459a1.542,1.542,0,0,1-1.557,1.557H182.557A1.542,1.542,0,0,1,181,135.017V122.557A1.542,1.542,0,0,1,182.557,121h4.672l1.557,3.115L190.344,121h4.672A1.542,1.542,0,0,1,196.574,122.557Z" transform="translate(-181 -121)" fill="#fc9"/>
    <path id="Path_3178" data-name="Path 3178" d="M263.787,122.557v12.459a1.542,1.542,0,0,1-1.557,1.557H256V124.115L257.557,121h4.672A1.542,1.542,0,0,1,263.787,122.557Z" transform="translate(-248.213 -121)" fill="#f2ab79"/>
    <path id="Path_3179" data-name="Path 3179" d="M244.115,121v4.672a1.557,1.557,0,0,1-3.115,0V121Z" transform="translate(-234.77 -121)" fill="#f2ab79"/>
    <path id="Path_3180" data-name="Path 3180" d="M256,121h1.557v4.672A1.542,1.542,0,0,1,256,127.23Z" transform="translate(-248.213 -121)" fill="#e6895c"/>
  </g>
</svg>
