<svg xmlns="http://www.w3.org/2000/svg" width="63.699" height="50.959" viewBox="0 0 63.699 50.959">
  <path id="Icon_awesome-robot" data-name="Icon awesome-robot" d="M0,25.48v12.74A3.182,3.182,0,0,0,3.185,41.4H6.37V22.295H3.185A3.182,3.182,0,0,0,0,25.48ZM46.182,9.555H35.034V3.185a3.185,3.185,0,1,0-6.37,0v6.37H17.517a7.96,7.96,0,0,0-7.962,7.962V44.589a6.376,6.376,0,0,0,6.37,6.37H47.774a6.376,6.376,0,0,0,6.37-6.37V17.517A7.96,7.96,0,0,0,46.182,9.555ZM25.48,41.4H19.11V38.219h6.37ZM22.295,29.461a3.981,3.981,0,1,1,3.981-3.981A3.98,3.98,0,0,1,22.295,29.461ZM35.034,41.4h-6.37V38.219h6.37Zm9.555,0h-6.37V38.219h6.37ZM41.4,29.461a3.981,3.981,0,1,1,3.981-3.981A3.98,3.98,0,0,1,41.4,29.461Zm19.11-7.166H57.329V41.4h3.185A3.182,3.182,0,0,0,63.7,38.219V25.48A3.182,3.182,0,0,0,60.514,22.295Z" fill="#28287d"/>
</svg>
